<svg id="Слой_1" data-name="Слой 1" xmlns="http://www.w3.org/2000/svg" viewBox="0 0 38.8 41.4"><defs><style>.cls-1{fill:#fff;}</style></defs><g id="Слой_1-2" data-name="Слой 1"><path class="cls-1" d="M24.43,2c-1.3,2.3-2.6,6.8-1.3,9.5s1.7,4.8,2.5,4.8-1.3,1.6-1.6,2.2,0,0-3,.1c-2.3-1.3-9.4-2.6-11.7-1.1s-3.5,6.2-3.1,7.5.9,4.1,2.5,5.1c.8,1.6.5,4.2-1.3,2.8-.5-1.7-3.1-3.2-2.9-1.1a2.46,2.46,0,0,0-2.4.4c-.7.7-1.3,4.8-1.6,6.3s.2,1.7.8,2.5.6-1.1,1.1-2a8.72,8.72,0,0,1,1.4-2.6s.5.6.8.9c-.8,2.6,2.9,5.3,1.8,1.3a11.16,11.16,0,0,0,3.9,1.8,3.45,3.45,0,0,0,4.3-1.2c2.6-3.1,2.6-7.7,2.2-8a39.12,39.12,0,0,1,5.9-1.1c1.5.4,2.3,4.1,3.1,4.9,1.4,1.4,3.4,5.2,4.7,5.7a12.57,12.57,0,0,0,4.2.5c.2.2,2.2.3,1.5-1.7a17.5,17.5,0,0,1-2.6-.7c2.4-1.2-.3-1.3-1.4-.9-1.1-2.7-4.1-7.2-3.9-7.9s2-3.8,2.4-7.2a26.09,26.09,0,0,1,.8-3.2l.3-1c.3-1,.8-.2,1.5,0,1.4.4,1,.4,2,.2s3.3-3.3,3.3-5.7-.8-4.8-.1-6.2-1-4.9-3.3-5.9c-2.5-.9-9.5-1.2-10.8,1Z"/></g></svg>