<svg id="Слой_1" data-name="Слой 1" xmlns="http://www.w3.org/2000/svg" viewBox="0 0 39.91 106.97"><defs><style>.cls-1{fill:#fff;fill-rule:evenodd;}</style></defs><g id="Слой_1-2" data-name="Слой 1"><path class="cls-1" d="M23.6,4.6c-5.6-.3-7.2-.8-9.9,2.5-3,3.8-2.8,9.2-1.8,12.4,1.3,4.2,3,5.2,6.7,5.7,1.1.1.2,2.4,0,3.4s-3.8.1-4.8.8l-2.6,1.8a29.39,29.39,0,0,0-2.1,2.4,19.27,19.27,0,0,0-3.8.7S.7,53.1,1.4,54.1c.8,1.3,3.6.5,3.6.5L4.4,61,2.3,68.4c-.3,2.1,1.9,6.5,4.3,6.4L5.1,70.5s1.5,4.3,2.6-1.1A22.37,22.37,0,0,1,10.1,63c0-1.2-.3.5-.7,2.2S5.3,98.3,6.8,98.8c1.9.6-1.9,4.2-3.1,6.3s12.8,2,14,1.9,2.9-2,1.5-3-6-2-6-2.5,7.5-30.8,7.5-30.8-2,26.9-1,27.2c2.6.7-.1,4.5-.2,6.8l15.1-.3-.3-1.9c-.2-1.2-6.5-2.4-6.5-2.4l5.5-35L29.9,35c4.7-2.5,4.9-1.8,8.6-9.4a41.11,41.11,0,0,0-.9-10.4L39,3.2S38.7.1,37.8,1s-.3,2.5-1.2,4.2c-.7,1.5-1.9,2.2-2.1,2.7-.3,1-.4-2.5-.4-2.5s-.5-1.4-.7-.6l-.7,4.5a11.24,11.24,0,0,0,.4,3,40,40,0,0,1,1.2,4.6,47.92,47.92,0,0,1-.5,5.5c-.3,1-1.9,4.1-2.7,4.2-4.5.8-6.2-.5-6.2-.5A2.11,2.11,0,0,1,26,24.4c2.5-1,3.5.6,3.8-3.8.9-3-1.5-5.7-.8-6.8s1.1-2.4.3-4.7c-.6-2.2-5.7-4.5-5.7-4.5Z"/></g></svg>