<svg id="Слой_1" data-name="Слой 1" xmlns="http://www.w3.org/2000/svg" viewBox="0 0 95.07 189.65"><defs><style>.cls-1{fill:#fff;fill-rule:evenodd;}</style></defs><g id="Слой_1-2" data-name="Слой 1"><path class="cls-1" d="M49,20.75c-.8,5.9-2.3,7.1-4.5,7.8l1.1,3.7s15.1,3.3,16.1,4.5,3,5.8,4.3,7.6c3.1,4.1,6.4,18.7,5.3,19.9-.7.7,6.4,10.5,6.4,15.8l-.6.9,2.7,1.4,4.3-9.9c-.2.2,9.2,9.7,10.9,18.1l-17.1,24s-.8-7.4-3.9-11.1a53.3,53.3,0,0,0-6.5-6.2l7.1-8.7-1-2-1.4,1c-2.8-3.3-6.9-6.1-9.3-12.3l-.1-.4s.7,4.7.9,8.3-.7,22.1-.7,22.1.1,2.1-1.8,2.2,3.5,23.2,3.8,29.7c.3,5.9-1.5,32.5-1.5,32.5l-1.9,3.3s3.9,3.5,4.6,5.3,2.5,4.3,1.9,6.3-4.6,1.5-6.2.8-10.8-11.3-10.8-11.3l.6-1.8-2.3-2c-2.7-7-3.5-15.5-3.4-25.8l-5.8-14.9-1.8,18.2c2.1,9.1,1.4,17.3.9,25.1l-3.3,2-.2,2a35.58,35.58,0,0,1-1.2,6.3c-.8,2.3-3.3,6.5-5,6.5s-8.3-1-7.3-4.5l1-3.5,1.9-6-3.1-1.5c-2,.6-.5-29.5-2.9-37-1.5-4.6,1.2-27.4,2.3-27.7a10.32,10.32,0,0,1-1.5-1.8c-1.1-1.5-3.3-20-3.1-25s1.3-18.1,1.3-18.1-5.1,3.7-4.5,8.4c.7,5.1-.6,15.5-.9,15.4l-1.2.5s2.4,2.5,2.8,4.4c.3,1.5-1.7,2.7-1.1,2.7,1.8-.1,1.4,4.1.6,5-2.2,2.4-9.3-.1-9.7-2.6s-1.8-6.4-.3-8-.8-.2-.8-.2c-.2.4-3.9-11.5-2.9-22.9.4-4.2,6.6-15.1,9-20,1-2,5.8-8.3,8.3-9.7a27.84,27.84,0,0,1,8.3-2.7c1.9-.3,6.5-1.7,6.5-1.7l1.1-4.5c-2.4-.4-3.8-1.9-4.9-7.7-.3-1.5-.1-3.3-.1-6.2-1.2.2,0-8.3,1.2-7.4a9.24,9.24,0,0,1,9.1-7.2c7.1-.1,8.7,3.8,9.6,7.2,1.3-.7,2.3,8.3.9,7.6.4,1.9-.1,4.4-.2,5.8Z"/></g></svg>