<svg id="Слой_1" data-name="Слой 1" xmlns="http://www.w3.org/2000/svg" viewBox="0 0 51.65 156.28"><defs><style>.cls-1{fill:#fff;fill-rule:evenodd;}</style></defs><g id="Слой_1-2" data-name="Слой 1"><path class="cls-1" d="M32.54,58a70.38,70.38,0,0,0,2.1,12.9s.5-5.3,4.9-6.6c2.6-.8,3.4-.6,3.4-.6ZM20.44,23s2.5.6,3.3-4.3c.6-3.7.6-11.7-.8-14.4s-10.7-6.4-14.9-1c-2.1,2.6-3.1,9.9-.5,15.1s4.9,5.2,4.9,5.2l.2,2.6S1.74,33.61.84,37.11s.9,23.2.7,26.4c-.1,1.7.9,19,.7,24-.1,2.9,1.5,7.5,1.5,7.5.6,2.6,1.9,1.8,1.9,1.8l-.7-11.2c.8,2.1.1,6.1,1.7,5.9,0,0,.7-5.9-.9-8.5-.1-2.7.3-9.8,1.2-19.8.5-3.3.7-9,.4-19.8l3.4,24.1a15.68,15.68,0,0,0-1.5,6.6c-1,8-.6,13.5-.5,19.6a2.7,2.7,0,0,0,1.4,2.1c0,6.3-.2,15,.4,19.6,1.2,10-.4,26.4-.2,27.2s-2,4.5-2.7,6.2-4.2,3.8-1.5,6.7c1,1.1,3.7,1.1,4.9,0s7.2-7.2,6-9c.2-1.8-.2-4.9.1-6.7.9-6.1,2.6-15.6,2.4-24.5,1-3.4,1.5-11.5,1.6-18.3.9.5,1.5.4,2-.2l.7-8.8v8.7l1.3.8a105,105,0,0,0,2.1,18.4c.2,3.3.2,16.9,1.5,23.4.8,4-1.2,6.3-.9,7.3.1,2.9,3.1,4.2,3.1,4.2a44,44,0,0,0,4.7,3.1s5,3.1,8.2-.6c-1.2-3.4-3.1-2.9-4.1-4.5l-4-4.6a13.22,13.22,0,0,1-1.6-6.4c-.1-4.2,1.6-17,1.6-22.5-.5-5.5.1-11,0-16.9a1.85,1.85,0,0,0,2.2-.6c.4-6.8-1.5-15.3-3.4-23.7a12.07,12.07,0,0,0,1.2,4.5c.9,1.6.9,5.4,6.5,5.8,4.59.3,5.9-4.2,6.3-7.7s.4-4,.2-2.4-.81,9.3-.1,7.7,3.19-11.4,2.1-13.7-1.1-9.2-4.6-10.6-11.81-8.5-11.81-8.5-2.59-15.9-2.8-18.7S21.33,25,21.33,25Z"/></g></svg>