<svg id="Слой_1" data-name="Слой 1" xmlns="http://www.w3.org/2000/svg" viewBox="0 0 78.18 198.83"><defs><style>.cls-1{fill:#fff;fill-rule:evenodd;}</style></defs><g id="Слой_1-2" data-name="Слой 1"><path class="cls-1" d="M42.75,42.7c.2,1.4-.7.6-.7.6-3-2.9-1.4,2-.8,3.4a3.75,3.75,0,0,1-.6,2.1c-1.1.4-2.7-.8-3.1-.2l.3,3s.5,1.3,1,1.3,2.1.6,3.2.1a9.44,9.44,0,0,1,3.6-.2s7.1-16.1,7.9-17.8,3.9-20.1,3.9-20.1l2.2-.6c.8-.2.2-1.8,0-2.3s-.6.1-1.2-.1S57,10,57,10l-10.7,3.4s-1.2.1-1.6-2.2c-.6-3.4.1-5.1,1-5.8L58,5.5a1.26,1.26,0,0,1,.1-1.2c.4-.6.9-1.5,1.6-1.5a18.28,18.28,0,0,0,2.6-.7c.8,0,3.1-.5,3.1.7a2.1,2.1,0,0,0,.3,1.2L77,0c1.3.4,1.5,3.8,1.4,5.5-.1,2.4-.4,3.9-2.2,4.6L65.65,8.6a7.74,7.74,0,0,0-.4,2,38.69,38.69,0,0,1-.7,4.3s2.3.6,2.1,2.2c-.5,3-3.5,8.7-3.5,11.2,0,4.9-6.6,28.6-10.9,34.3l-1.8,7.7c-3.2,14.8-3.5,35.6-2.3,44.9L45,117.8l2.7,22.3,1.1,27.4,1.1,5.5-1.1,4.3.7,2.6-2.6,2s3.6,2.8,4.9,3.5a5.62,5.62,0,0,1,3.1,4.5c.1,2.2-2.6,6.3-2.6,6.3s-5.8-1.4-8.6-4.1-2.4-2-3.8-2-3-2.4-3-2.4l.4-6.1.9-1.2-1.3-2.2,1.8-5-1.5-3.9-.7-21.5-3.9-22.7-3,20.9-3,20.9-2.7,6.7.5,1.6-.5,2.2.5,2-1.9.8.7.8-.4,5.9s-1.3,7.3-2.7,9.5-4.6,3-5.5,2-3-3.4-3.2-5.9c-.6-5,3.5-14.2,3.5-14.2l-.4-5.3L13,171a3.7,3.7,0,0,0,1.9-3,8.4,8.4,0,0,0-1.6-4.5s2.3-4.6,2.3-6.3c-.1-8.5,3-21.9,3-21.9l2.6-17.5L18,115.6c.8-10.5,3.3-19.4.7-36-5.1,6.1-3.4,8-6.3,11.1l-3.8,16.7s-2.3-1.4-1.7-.1c2.6,5.6,6.2,8.3,1.6,6-.3-.1-3.2-3.3-3.3-1.1-.2,2.7,3,5.9,3,5.9l2.7-.6c.7-.2-.9,4.5-3.6,3.2-2.5-1.1-6.5-6.5-6.3-10.6s1.9-4.7,1.9-4.7l-2.4-1c-2.1-2.1,11.2-38.5,13.5-40.2,2-1.5,7-6.1,9.7-7.1s3-1.4,3-1.4l2.4-9.2s-1.4-.9-2.4-1.5c-1.5-.8-3.7-7-3.7-7a28.7,28.7,0,0,1,1.7-11.6,15.52,15.52,0,0,1,3.9-5.3c3.3-3.4,9.8-1.5,13.8.9,0,0,2.4,3.9,2.4,6.7s-.6,2.8-.6,2.8a13.33,13.33,0,0,1-1,4.4c-.3,1,1.1,2.4,1.3,4-.4.9-1.7.8-1.7,2.8Z"/></g></svg>