<svg id="Слой_1" data-name="Слой 1" xmlns="http://www.w3.org/2000/svg" viewBox="0 0 102.07 134.49"><defs><style>.cls-1{fill:#fff;fill-rule:evenodd;}</style></defs><g id="Слой_1-2" data-name="Слой 1"><path class="cls-1" d="M28.31,33.29c-3.5.8-10.4,5.9-17,10.7,4.7-4.1,6.7-8.7,14.3-12.2Zm40.8,13.2c1.7.2,11.8-3.9,14-4.8s2.8.2,2.8.2a9.88,9.88,0,0,1,3.3-1.8c2.2-.7,6.7-.5,7.4.9a11.18,11.18,0,0,1,.9,2.3s1.3.5,2.1.9a4,4,0,0,1,2.1,3.6l-8.4,86.3-1.9-.3,8.2-82.6s.7-3.9-.3-4.7c-1.5-1.3-1.6-.3-1.6-.3s.9,1.4-.1,2.1-4.7.2-4.7.2l-1.1,1.7-1.3-.4.9-2.2-.7-2-2.8.4,1,4.1-1.7,2.3L72.71,58c-5.5,1.9-11.7.9-13.4-3.9L55,48.29S48,55,46.21,58s-7.1,11.5-7.2,13.3-7.4-1.1-7.4-1.1,16.3,20.3,16.6,23.5-3.2,14-4.6,16.2c-.6.9-2.4,4.4-3.5,6.4-.3.5-.5-.6-.7-.1s0,1.4-.2,1.9c-.7,1.4-.4,4.3-.4,4.3l-2.3.5-.2,1.8s2.8,2.1,5.5,1.9,7.8.1,8.4,1.4l.9,2.3s.2,2.4-.7,2.8-6.7.2-8.4.4c-2.7.2-7.3-1.9-7.3-1.9l-.5,2.1-5.5-.3s-.6-5.8-.1-6.8l1.1-2.1-.6-1.5a6,6,0,0,0-2.9-.5c-1.4.2.4-2.3,1-3.9.3-.7-.2-2.9,0-3.9.2-.8,1.5-.8,1.8-1.6.2-.6-1.1-2.3-.9-2.8.8-2.1,1.4-4,2.1-6,1.1-3.1,5.7-6.5,3.2-9.2s-14.7-13.8-14.7-13.8L28,94.89l.5,2.5s1.4,3.3.5,5c-.5.9-5.1,11.6-7.6,17.6-.3.8-1.1,0-1.3.7s.8,1,.6,1.6l-.6,1.5a7.85,7.85,0,0,1-4.8.1l-.1,1.4c1.6,3.1,5.9,2.9,9.6,3.7,1.9,1.3,1.5,3.1.9,4.8l-8,.7c-3.6-.2-5.5-1.1-8.3-2.3l-.1,1.6-5.9-.2-.1-4.4.4-2.7,1.5-.8,1.5-2.1c-2.1-.2-1.3-.9-2-1.8l1.8-3.6,1-.1-.1-2.3,3.3-5.9,2.5-8.1c.7-2.3-2.4-6.6-3.2-7.7-1.9-2.7-7.9-10.3-8.5-13.8-.4-2.7-1.5-6.8-.6-9.9.9-2.9,2.5-6.7,2.5-6.7L1.21,61l1.4-2.9-.5-2.2a44.38,44.38,0,0,1,1-4.9l-1.2-2.7c-.6-.2,1-7.6,3.8-13.8.8-1.8,16.2-13.5,17.7-15.7s12.2.9,16.5,1.6,8.3,2.9,9.3,2.3,2.6-2,4.7-5a10.72,10.72,0,0,0,.2-6.4c-.6-1.9,2.5-2.7,4.6-6.5s6.4-3.5,10.3-3.5,6.5,4.1,8.8,8.6a17.33,17.33,0,0,1,.8,4.3c-.3,4.9-.1,4.5-1.2,5.2-3.5,2.2-3.2,8.8-5.9,6.7-1.4-1.1-4.8,4.6-6.5,4.6s-2.9-1.9-3-2.9-.8-1.4-1.9.1a9.25,9.25,0,0,1-2.2,2.2c1.6,4.6,9.5,16.2,11.2,16.4Z"/></g></svg>