<svg id="Слой_1" data-name="Слой 1" xmlns="http://www.w3.org/2000/svg" viewBox="0 0 75.4 187.58"><defs><style>.cls-1{fill:#fff;fill-rule:evenodd;}</style></defs><g id="Слой_1-2" data-name="Слой 1"><path class="cls-1" d="M61.5,98.57l1.5.1,1.2,3.4-4.4-.1-.1-1.2c.7.4,1.5-.6,1.7-1ZM39.7,22.07c-.3-1.5-2.6-6.4-1.6-11,1.2-5.2,1.4-5.6,4-7.9,4.1-3.2,9.6-2.6,13-1.1C59.5,4,63,8.67,63,8.67l-1.1,1.1-.1,2.5a5.48,5.48,0,0,1-1.6,3.1c-.6,1.4-.4,1-.4,2.9.1.9.9,2.3.2,2.7l-1.5.2-.2,2.7a8.34,8.34,0,0,0-.2,3.7c-.3,1.2-1,1.5-2.2,1.6a10.49,10.49,0,0,1-3.5-.3c-.8,0-.9.8-1.3,2.4l-.1,3.3.8,2.2c2.3,2.2,4.1,4.3,4.3,7-.9,11.4-1.1,19.6.1,29.6L61,87.57l-1.4,2.8.8,4.9c.6.3,1.1.7.9,1.3l2.4.3,2,5,8.6-.1,1.1,28-21.3.9c.3,7.4,2.8,17.1,2.4,22.4-.8,10.9.9,22.4,1.8,23.1l-1.2,1.5,1.6,1.5,6.2,3.4s7.9-.5,5.9,3.9c-2,1-5.8,1.1-5.8,1.1a37.3,37.3,0,0,1-12.3-1.9l-.1,1-6.5.7-.6-9.2,1.1-2.2-1.7.4-.6-3.3-1.1-24.5c-3.9-8.8-4.6-19.9-5.6-27.8-.2,3.7-3.3,15.6-6.1,22.9-2,5.2-13,31.6-13,31.6a5.19,5.19,0,0,1-4.2.3,7.65,7.65,0,0,0,1.4,4.6c.8.4,2.5,2,4.2,2.3,2.7.5,4.3,1.2,2.5,4.6a21.36,21.36,0,0,1-10.3-.9l-3.5-4.3a24,24,0,0,0-2.7-3.5s-.9.5-1.3.8l-3.9-4.7L2.8,172l-.9-1.7,14.8-29.1c0-7,4.8-18.3,4.3-24.7-.5-5.2.5-16.8.5-16.8l-3.9-.6,2.3-13c-5.5-1.5-5.8-14.9-6.7-20.4,1-7.9,7.1-19.5,13.7-30.6,1.5-2.2,6.5-2.5,12-2.5,2.9-2.5,5.1-7.6.8-10.5Z"/></g></svg>